<svg width="150" height="36" viewBox="0 0 150 36" fill="none" xmlns="http://www.w3.org/2000/svg">
<g clip-path="url(#clip0_211_5760)">
<g clip-path="url(#clip1_211_5760)">
<g clip-path="url(#clip2_211_5760)">
<g clip-path="url(#clip3_211_5760)">
<g clip-path="url(#clip4_211_5760)">
<g clip-path="url(#clip5_211_5760)">
<g clip-path="url(#clip6_211_5760)">
<path d="M47.3915 25.2014H43.4019V10.7314H47.5362C49.0107 10.7314 50.1132 11.0511 50.8436 11.6905C51.574 12.3327 51.9392 13.2464 51.9392 14.4316C51.9392 15.2309 51.6773 15.8924 51.1537 16.416C50.63 16.9397 49.9203 17.2567 49.0245 17.3669C50.127 17.5323 50.9855 17.9251 51.6002 18.5452C52.212 19.1653 52.518 19.9371 52.518 20.8604C52.518 22.1696 52.0673 23.2197 51.1661 24.0107C50.262 24.8045 49.0038 25.2014 47.3915 25.2014ZM45.0142 18.1111V23.8578H47.8876C48.7971 23.8578 49.5275 23.5822 50.0787 23.0309C50.63 22.4797 50.9056 21.7906 50.9056 20.9638C50.9056 20.1369 50.6135 19.4547 50.0291 18.9173C49.4421 18.3798 48.5835 18.1111 47.4535 18.1111H45.0142ZM47.6395 12.075H45.0142V16.7881H47.4328C48.1908 16.7881 48.8633 16.5773 49.4503 16.1556C50.0346 15.7366 50.3268 15.1551 50.3268 14.4109C50.3268 12.9088 49.431 12.1301 47.6395 12.075ZM60.3318 25.3048C58.4438 25.3048 57.0175 24.6047 56.0528 23.2046C55.0881 21.8072 54.6058 20.0267 54.6058 17.863C54.6058 15.6994 55.0909 13.9355 56.0611 12.5711C57.034 11.2068 58.4604 10.5247 60.3401 10.5247C62.2226 10.5247 63.653 11.2068 64.6315 12.5711C65.6099 13.9355 66.0992 15.6994 66.0992 17.863C66.0992 20.826 65.2585 22.962 63.5772 24.2712C62.6815 24.9603 61.5997 25.3048 60.3318 25.3048ZM60.3732 11.8683C58.9675 11.8683 57.916 12.454 57.2187 13.6254C56.5241 14.7968 56.1768 16.23 56.1768 17.9251C56.1768 19.6201 56.531 21.0465 57.2394 22.2041C57.9505 23.3617 58.9951 23.9405 60.3732 23.9405C61.7513 23.9405 62.7917 23.3548 63.4946 22.1834C64.1974 21.012 64.5488 19.5374 64.5488 17.7597C64.5488 15.5272 63.9218 13.8597 62.6677 12.7572C62.02 12.1646 61.2551 11.8683 60.3732 11.8683ZM73.7269 25.3048C71.8389 25.3048 70.4126 24.6047 69.4479 23.2046C68.4833 21.8072 68.0009 20.0267 68.0009 17.863C68.0009 15.6994 68.486 13.9355 69.4562 12.5711C70.4264 11.2068 71.8527 10.5247 73.7352 10.5247C75.6177 10.5247 77.0482 11.2068 78.0266 12.5711C79.0023 13.9355 79.4902 15.6994 79.4902 17.863C79.4902 20.826 78.6509 22.962 76.9724 24.2712C76.0766 24.9603 74.9948 25.3048 73.7269 25.3048ZM73.7683 11.8683C72.3626 11.8683 71.3111 12.454 70.6138 13.6254C69.9165 14.7968 69.5678 16.23 69.5678 17.9251C69.5678 19.6201 69.9234 21.0465 70.6345 22.2041C71.3456 23.3617 72.3902 23.9405 73.7683 23.9405C75.1464 23.9405 76.1869 23.3548 76.8897 22.1834C77.5898 21.012 77.9398 19.5374 77.9398 17.7597C77.9398 15.5272 77.3141 13.8597 76.0628 12.7572C75.4151 12.1646 74.6503 11.8683 73.7683 11.8683ZM86.7872 16.23L91.9137 25.2014H89.9706L85.7329 17.2842L83.8725 19.248V25.2014H82.3222V10.752H83.8518V17.2636L89.8879 10.7314H91.7897L86.7872 16.23ZM101.443 11.2482L101.113 12.6332L99.9136 12.2817C99.0592 12.075 98.3219 11.9717 97.7017 11.9717C96.0756 11.9717 95.2625 12.6952 95.2625 14.1422C95.2625 14.7761 95.5106 15.2956 96.0067 15.7008C96.5028 16.1087 97.1064 16.4326 97.8175 16.6724C98.5258 16.9149 99.2356 17.1767 99.9467 17.4579C100.655 17.7418 101.257 18.1759 101.753 18.7602C102.249 19.3473 102.498 20.0887 102.498 20.9844C102.498 22.3488 102.077 23.4126 101.237 24.1761C100.396 24.9423 99.2039 25.3255 97.6604 25.3255C96.8887 25.3255 96.1142 25.2111 95.3369 24.9823C94.5569 24.7563 93.9189 24.4917 93.4227 24.1885L93.9395 23.0102C95.1936 23.589 96.3829 23.8784 97.5074 23.8784C98.6292 23.8784 99.4836 23.6511 100.071 23.1963C100.655 22.7415 100.947 22.08 100.947 21.2118C100.947 20.3298 100.472 19.6408 99.5208 19.1447C99.0936 18.9242 98.6223 18.7175 98.1069 18.5245C97.5887 18.3316 97.0719 18.1207 96.5565 17.892C96.0384 17.666 95.5698 17.4083 95.1509 17.1189C94.7292 16.8295 94.3847 16.4367 94.1173 15.9406C93.8472 15.4445 93.7121 14.8657 93.7121 14.2042C93.7121 13.019 94.0677 12.1095 94.7788 11.4755C95.4871 10.8416 96.4408 10.5247 97.6397 10.5247C98.8387 10.5247 100.107 10.7658 101.443 11.2482ZM109.671 25.2014H108.141V12.1164H104.089V10.7314H113.681V12.1164H109.671V25.2014ZM120.771 25.3048C118.883 25.3048 117.457 24.6047 116.492 23.2046C115.527 21.8072 115.045 20.0267 115.045 17.863C115.045 15.6994 115.53 13.9355 116.5 12.5711C117.473 11.2068 118.9 10.5247 120.779 10.5247C122.662 10.5247 124.092 11.2068 125.071 12.5711C126.049 13.9355 126.538 15.6994 126.538 17.863C126.538 20.826 125.698 22.962 124.017 24.2712C123.121 24.9603 122.039 25.3048 120.771 25.3048ZM120.812 11.8683C119.407 11.8683 118.355 12.454 117.658 13.6254C116.963 14.7968 116.616 16.23 116.616 17.9251C116.616 19.6201 116.97 21.0465 117.679 22.2041C118.39 23.3617 119.434 23.9405 120.812 23.9405C122.191 23.9405 123.231 23.3548 123.934 22.1834C124.637 21.012 124.988 19.5374 124.988 17.7597C124.988 15.5272 124.361 13.8597 123.107 12.7572C122.459 12.1646 121.694 11.8683 120.812 11.8683ZM132.198 18.4005H130.917V25.1808H129.366V10.7107H133.542C134.948 10.7107 136.006 11.0304 136.717 11.6699C137.425 12.3121 137.78 13.2257 137.78 14.4109C137.78 15.2378 137.494 15.9957 136.924 16.6848C136.351 17.3738 135.644 17.7735 134.803 17.8837C135.478 18.0353 135.958 18.2517 136.242 18.5328C136.523 18.8167 136.856 19.4203 137.242 20.3436L139.289 25.1808H137.656L135.65 20.5503C135.278 19.6821 134.862 19.1061 134.402 18.8222C133.939 18.5411 133.204 18.4005 132.198 18.4005ZM133.459 12.0337H130.917V17.0775H133.253C134.107 17.0775 134.786 16.8253 135.291 16.3209C135.792 15.8193 136.043 15.1826 136.043 14.4109C136.043 13.6392 135.816 13.0493 135.361 12.6414C134.906 12.2363 134.272 12.0337 133.459 12.0337ZM149.624 23.8578V25.2014H141.831V10.7314H149.624V12.075H143.382V16.6641H149.108V18.0491H143.382V23.8578H149.624Z" fill="white"/>
</g>
</g>
</g>
</g>
<g clip-path="url(#clip7_211_5760)">
<g clip-path="url(#clip8_211_5760)">
<path d="M0.371582 17.9251C0.371582 7.97348 8.43881 -0.09375 18.3904 -0.09375C28.342 -0.09375 36.4093 7.97348 36.4093 17.9251C36.4093 27.8767 28.342 35.9439 18.3904 35.9439C8.43881 35.9439 0.371582 27.8767 0.371582 17.9251ZM18.3904 34.6093C27.6048 34.6093 35.0744 27.1397 35.0747 17.9251C35.0747 8.71074 27.605 1.24112 18.3904 1.24112C9.17607 1.24112 1.70645 8.71074 1.70645 17.9251C1.70645 27.1394 9.17607 34.6091 18.3904 34.6093Z" fill="white"/>
<path d="M20.2727 14.4615C22.5186 14.0072 24.7645 13.1811 27.011 12.7268C27.0549 12.7172 27.0961 12.6925 27.1263 12.6555C27.1572 12.6184 27.1743 12.5738 27.1743 12.5306C27.1743 12.3769 27.1743 12.2252 27.1743 12.0722C27.1743 11.9823 27.1009 11.9226 27.0103 11.9418C24.7645 12.3961 22.5186 13.2216 20.2721 13.6758C20.1808 13.6943 20.1074 13.7815 20.1074 13.8727C20.1074 14.0251 20.1067 14.1774 20.1067 14.3297C20.1081 14.3737 20.1238 14.4128 20.1554 14.4368C20.1863 14.4615 20.2288 14.4704 20.2727 14.4615Z" fill="white"/>
<path d="M27.1265 13.668C27.0963 13.6433 27.0551 13.6337 27.0112 13.6433C24.7654 14.0983 22.5195 14.9237 20.273 15.378C20.1817 15.3965 20.109 15.4836 20.1083 15.5749C20.1083 15.7272 20.1083 15.8796 20.1083 16.0319C20.1083 16.0751 20.1247 16.1136 20.1563 16.1389C20.1872 16.163 20.2284 16.1726 20.2716 16.1636C22.5181 15.7094 24.7647 14.8826 27.0112 14.4283C27.0565 14.4187 27.0977 14.3926 27.1265 14.3569C27.1567 14.3219 27.1745 14.2773 27.1752 14.2321C27.1752 14.079 27.1752 13.9267 27.1752 13.7737C27.1745 13.7305 27.1574 13.6927 27.1265 13.668Z" fill="white"/>
<path d="M20.273 17.866C22.5188 17.4111 24.7647 16.5856 27.0112 16.1307C27.0558 16.121 27.097 16.0957 27.1265 16.0593C27.156 16.0243 27.1745 15.9804 27.1745 15.9344C27.1745 15.7814 27.1745 15.6297 27.1745 15.4767C27.1745 15.4335 27.1574 15.3951 27.1265 15.3704C27.0963 15.3457 27.0551 15.3367 27.0112 15.3457C24.7654 15.8006 22.5195 16.6268 20.273 17.081C20.1858 17.0988 20.1083 17.1908 20.1083 17.2779C20.1083 17.431 20.1083 17.5826 20.1083 17.7349C20.1083 17.8248 20.1817 17.8838 20.273 17.866Z" fill="white"/>
<path d="M28.8616 8.00369C25.3909 8.30423 21.9203 9.97782 18.4496 10.2859C14.9789 9.97782 11.5082 8.30423 8.0375 8.00369C7.76029 7.97967 7.50022 8.07436 7.30398 8.26512C7.10842 8.45588 7 8.718 7 8.99453C7 13.9659 7 18.9373 7 23.9093C7 24.1865 7.10842 24.4459 7.30398 24.6469C7.50022 24.8473 7.76097 24.9688 8.0375 24.9928C11.3662 25.2817 14.6948 26.8304 18.0235 27.2283C18.147 27.2736 18.2821 27.2915 18.4214 27.2784C18.431 27.2777 18.4406 27.2764 18.4503 27.2757C18.4599 27.2764 18.4695 27.2777 18.4791 27.2784C18.6184 27.2915 18.7529 27.2736 18.8771 27.2283C22.2057 26.8304 25.5344 25.2817 28.863 24.9928C29.1402 24.9688 29.4003 24.8473 29.5965 24.6469C29.7921 24.4459 29.9005 24.1865 29.9005 23.9093C29.9005 18.9373 29.9005 13.9659 29.9005 8.99453C29.9005 8.718 29.7921 8.45588 29.5965 8.26512C29.3989 8.07368 29.1389 7.97967 28.8616 8.00369ZM17.3839 25.0662C14.6138 24.6202 11.8444 23.4832 9.075 23.0468C9.075 18.7671 9.07569 14.4867 9.07569 10.207C11.8451 10.6434 14.6138 11.7804 17.3839 12.2257C17.3839 16.5054 17.3839 20.7865 17.3839 25.0662ZM19.5152 25.0662C19.5152 20.7865 19.5152 16.5054 19.5152 12.2257C22.2853 11.7804 25.054 10.6427 27.8235 10.207C27.8235 14.4867 27.8241 18.7671 27.8241 23.0468C25.0547 23.4832 22.2853 24.6195 19.5152 25.0662Z" fill="white"/>
<path d="M9.88812 12.7261C12.134 13.1804 14.3798 14.0065 16.6264 14.4608C16.6703 14.4697 16.7122 14.4608 16.743 14.4361C16.7739 14.4121 16.7904 14.3729 16.7918 14.329C16.7918 14.1767 16.7911 14.0244 16.7911 13.872C16.7911 13.7808 16.7183 13.6936 16.6264 13.6751C14.3805 13.2208 12.1347 12.3954 9.88812 11.9411C9.79823 11.9226 9.72412 11.9823 9.72412 12.0715C9.72412 12.2245 9.72412 12.3762 9.72412 12.5299C9.72412 12.5724 9.74128 12.6177 9.77215 12.6547C9.80303 12.6925 9.8442 12.7172 9.88812 12.7261Z" fill="white"/>
<path d="M9.88816 14.4283C12.134 14.8826 14.3813 15.7094 16.6278 16.1636C16.671 16.1726 16.7122 16.163 16.7431 16.1389C16.774 16.1136 16.7911 16.0751 16.7911 16.0319C16.7911 15.8796 16.7911 15.7272 16.7911 15.5749C16.7904 15.4836 16.7177 15.3965 16.6264 15.378C14.3806 14.9237 12.1347 14.0983 9.88816 13.6433C9.84425 13.6337 9.80308 13.6433 9.77289 13.668C9.74201 13.6927 9.72485 13.7311 9.72485 13.7737C9.72485 13.9267 9.72485 14.079 9.72485 14.2321C9.72554 14.2767 9.74338 14.3219 9.77357 14.3569C9.8017 14.3926 9.84356 14.4187 9.88816 14.4283Z" fill="white"/>
<path d="M16.6264 17.866C16.7177 17.8838 16.7911 17.8248 16.7911 17.7349C16.7911 17.5826 16.7911 17.431 16.7911 17.2779C16.7911 17.1908 16.7136 17.0988 16.6264 17.081C14.3806 16.6268 12.1347 15.8006 9.88816 15.3457C9.84425 15.3367 9.80308 15.3457 9.77289 15.3704C9.74201 15.3951 9.72485 15.4335 9.72485 15.4767C9.72485 15.6297 9.72485 15.7814 9.72485 15.9344C9.72485 15.9797 9.74338 16.0243 9.77289 16.0593C9.80239 16.0963 9.84356 16.1217 9.88816 16.1307C12.1347 16.5856 14.3806 17.4111 16.6264 17.866Z" fill="white"/>
<path d="M20.2727 19.4875C22.5186 19.0332 24.7645 18.2071 27.011 17.7521C27.0549 17.7432 27.0961 17.7171 27.1263 17.6808C27.1572 17.6437 27.1743 17.5991 27.1743 17.5552C27.1743 17.4029 27.1743 17.2505 27.1743 17.0975C27.1743 17.0076 27.1009 16.9472 27.0103 16.9665C24.7645 17.4207 22.5186 18.2469 20.2721 18.7011C20.1808 18.719 20.1074 18.8075 20.1074 18.8981C20.1074 19.0504 20.1067 19.2034 20.1067 19.355C20.1081 19.399 20.1238 19.4374 20.1554 19.4621C20.1863 19.4868 20.2288 19.4964 20.2727 19.4875Z" fill="white"/>
<path d="M27.1265 18.6935C27.0963 18.6688 27.0551 18.6606 27.0112 18.6695C24.7654 19.1238 22.5195 19.9499 20.273 20.4035C20.1817 20.4227 20.109 20.5098 20.1083 20.6004C20.1083 20.7534 20.1083 20.9051 20.1083 21.0581C20.1083 21.1006 20.1247 21.1404 20.1563 21.1651C20.1872 21.1892 20.2284 21.1981 20.2716 21.1892C22.5181 20.7349 24.7647 19.9087 27.0112 19.4552C27.0565 19.4449 27.0977 19.4181 27.1265 19.3838C27.1567 19.3475 27.1745 19.3042 27.1752 19.2582C27.1752 19.1045 27.1752 18.9529 27.1752 18.8006C27.1745 18.7573 27.1574 18.7175 27.1265 18.6935Z" fill="white"/>
<path d="M27.0112 20.3721C24.7654 20.8263 22.5195 21.6518 20.273 22.1067C20.1858 22.1239 20.1083 22.2158 20.1083 22.303C20.1083 22.456 20.1083 22.6083 20.1083 22.7606C20.1083 22.8505 20.1817 22.9109 20.273 22.8917C22.5188 22.4368 24.7647 21.6106 27.0112 21.1557C27.0558 21.1474 27.097 21.1207 27.1265 21.0843C27.156 21.0493 27.1745 21.0047 27.1745 20.9594C27.1745 20.8064 27.1745 20.6541 27.1745 20.5024C27.1745 20.4585 27.1574 20.4201 27.1265 20.3954C27.0963 20.3721 27.0551 20.3631 27.0112 20.3721Z" fill="white"/>
<path d="M9.72481 17.556C9.72481 17.5992 9.74196 17.6445 9.77284 17.6816C9.80303 17.7179 9.8442 17.744 9.88812 17.7529C12.134 18.2079 14.3798 19.034 16.6264 19.4883C16.6703 19.4972 16.7122 19.4876 16.743 19.4636C16.7739 19.4389 16.7904 19.4004 16.7918 19.3565C16.7918 19.2049 16.7911 19.0519 16.7911 18.8995C16.7911 18.809 16.7183 18.7204 16.6264 18.7026C14.3805 18.2484 12.1347 17.4222 9.88812 16.9679C9.79823 16.9494 9.72412 17.0098 9.72412 17.099C9.72481 17.2507 9.72481 17.4037 9.72481 17.556Z" fill="white"/>
<path d="M9.88816 19.4552C12.134 19.9087 14.3813 20.7349 16.6278 21.1892C16.671 21.1981 16.7122 21.1892 16.7431 21.1651C16.774 21.1404 16.7911 21.1006 16.7911 21.0581C16.7911 20.9051 16.7911 20.7534 16.7911 20.6004C16.7904 20.5098 16.7177 20.4227 16.6264 20.4035C14.3806 19.9499 12.1347 19.1238 9.88816 18.6695C9.84425 18.6606 9.80308 18.6688 9.77289 18.6935C9.74201 18.7175 9.72485 18.7573 9.72485 18.8006C9.72485 18.9529 9.72485 19.1045 9.72485 19.2582C9.72554 19.3035 9.74338 19.3475 9.77357 19.3838C9.8017 19.4181 9.84356 19.4449 9.88816 19.4552Z" fill="white"/>
<path d="M16.6264 22.1067C14.3806 21.6518 12.1347 20.8263 9.88816 20.372C9.84425 20.3631 9.80308 20.372 9.77289 20.3961C9.74201 20.4208 9.72485 20.4592 9.72485 20.5031C9.72485 20.6547 9.72485 20.8071 9.72485 20.9601C9.72485 21.0047 9.74338 21.05 9.77289 21.085C9.80239 21.1213 9.84356 21.1481 9.88816 21.1563C12.134 21.6113 14.3799 22.4374 16.6264 22.8924C16.7177 22.9109 16.7911 22.8505 16.7911 22.7613C16.7911 22.609 16.7911 22.4567 16.7911 22.3036C16.7911 22.2165 16.7136 22.1245 16.6264 22.1067Z" fill="white"/>
</g>
</g>
</g>
</g>
</g>
<defs>
<clipPath id="clip0_211_5760">
<rect width="150" height="35.85" fill="white"/>
</clipPath>
<clipPath id="clip1_211_5760">
<rect width="149.257" height="36.0377" fill="white" transform="translate(0.371582 -0.09375)"/>
</clipPath>
<clipPath id="clip2_211_5760">
<rect width="149.257" height="36.0377" fill="white" transform="translate(0.371582 -0.09375)"/>
</clipPath>
<clipPath id="clip3_211_5760">
<rect width="106.231" height="14.8008" fill="white" transform="translate(43.3976 10.5247)"/>
</clipPath>
<clipPath id="clip4_211_5760">
<rect width="106.231" height="14.8008" fill="white" transform="translate(43.3976 10.5247)"/>
</clipPath>
<clipPath id="clip5_211_5760">
<rect width="106.231" height="14.8008" fill="white" transform="translate(43.3976 10.5247)"/>
</clipPath>
<clipPath id="clip6_211_5760">
<rect width="106.231" height="14.8008" fill="white" transform="translate(43.3976 10.5247)"/>
</clipPath>
<clipPath id="clip7_211_5760">
<rect width="36.0377" height="36.0377" fill="white" transform="translate(0.371582 -0.09375)"/>
</clipPath>
<clipPath id="clip8_211_5760">
<rect width="36.0377" height="36.0377" fill="white" transform="translate(0.371582 -0.09375)"/>
</clipPath>
</defs>
</svg>
