<svg width="16" height="16" viewBox="0 0 16 16" fill="none" xmlns="http://www.w3.org/2000/svg">
<path fill-rule="evenodd" clip-rule="evenodd" d="M8 0C8.41421 0 8.75 0.335786 8.75 0.75V8.25C8.75 8.66421 8.41421 9 8 9C7.58579 9 7.25 8.66421 7.25 8.25V0.75C7.25 0.335786 7.58579 0 8 0ZM3.40381 2.34315C3.6967 2.63604 3.6967 3.11091 3.40381 3.40381C0.865398 5.94221 0.865398 10.0578 3.40381 12.5962C5.94221 15.1346 10.0578 15.1346 12.5962 12.5962C15.1346 10.0578 15.1346 5.94221 12.5962 3.40381C12.3033 3.11091 12.3033 2.63604 12.5962 2.34315C12.8891 2.05025 13.364 2.05025 13.6569 2.34315C16.781 5.46734 16.781 10.5327 13.6569 13.6569C10.5327 16.781 5.46734 16.781 2.34315 13.6569C-0.781049 10.5327 -0.781049 5.46734 2.34315 2.34315C2.63604 2.05025 3.11091 2.05025 3.40381 2.34315Z" fill="white"/>
</svg>
