<svg width="39" height="32" viewBox="0 0 39 32" fill="none" xmlns="http://www.w3.org/2000/svg">
<path d="M0 2.6C0 1.16188 1.24487 0 2.78571 0H36.2143C37.7551 0 39 1.16188 39 2.6C39 4.03813 37.7551 5.2 36.2143 5.2H2.78571C1.24487 5.2 0 4.03813 0 2.6ZM0 15.6C0 14.1619 1.24487 13 2.78571 13H36.2143C37.7551 13 39 14.1619 39 15.6C39 17.0381 37.7551 18.2 36.2143 18.2H2.78571C1.24487 18.2 0 17.0381 0 15.6ZM39 28.6C39 30.0381 37.7551 31.2 36.2143 31.2H2.78571C1.24487 31.2 0 30.0381 0 28.6C0 27.1619 1.24487 26 2.78571 26H36.2143C37.7551 26 39 27.1619 39 28.6Z" fill="white"/>
</svg>
