<svg width="25" height="20" viewBox="0 0 25 20" fill="none" xmlns="http://www.w3.org/2000/svg">
<path d="M1.6604 1.12598H3.23053C3.80806 1.12598 4.31343 1.46409 4.46224 1.95003L4.89644 3.36794M7.60922 12.2268C5.73182 12.2268 4.20989 13.5521 4.20989 15.187H22.0563M7.60922 12.2268H20.3207C21.5911 9.95665 22.6996 7.60524 23.6333 5.18394C18.2378 3.98402 12.5841 3.34614 6.75939 3.34614C6.13641 3.34614 5.5154 3.35344 4.89644 3.36794M7.60922 12.2268L4.89644 3.36794M5.90956 18.1472C5.90956 18.5559 5.52907 18.8873 5.05973 18.8873C4.59038 18.8873 4.20989 18.5559 4.20989 18.1472C4.20989 17.7385 4.59038 17.4072 5.05973 17.4072C5.52907 17.4072 5.90956 17.7385 5.90956 18.1472ZM20.3567 18.1472C20.3567 18.5559 19.9762 18.8873 19.5069 18.8873C19.0375 18.8873 18.657 18.5559 18.657 18.1472C18.657 17.7385 19.0375 17.4072 19.5069 17.4072C19.9762 17.4072 20.3567 17.7385 20.3567 18.1472Z" stroke="white" stroke-width="1.5" stroke-linecap="round" stroke-linejoin="round"/>
</svg>
