<svg width="23" height="19" viewBox="0 0 23 19" fill="none" xmlns="http://www.w3.org/2000/svg">
<path d="M21.4555 9.84078C21.4555 8.61462 20.3141 7.62062 18.906 7.62062H14.6569C14.6569 9.2555 13.1349 10.5808 11.2575 10.5808C9.38015 10.5808 7.85822 9.2555 7.85822 7.62062H3.60906C2.20102 7.62062 1.05957 8.61462 1.05957 9.84078M21.4555 9.84078V15.7612C21.4555 16.9874 20.3141 17.9814 18.906 17.9814H3.60906C2.20102 17.9814 1.05957 16.9874 1.05957 15.7612V9.84078M21.4555 9.84078V6.88057M1.05957 9.84078V6.88057M21.4555 6.88057C21.4555 5.65441 20.3141 4.66041 18.906 4.66041H3.60906C2.20102 4.66041 1.05957 5.65441 1.05957 6.88057M21.4555 6.88057V3.92036C21.4555 2.6942 20.3141 1.7002 18.906 1.7002H3.60906C2.20102 1.7002 1.05957 2.69419 1.05957 3.92036V6.88057" stroke="white" stroke-width="1.5" stroke-linecap="round" stroke-linejoin="round"/>
</svg>
